<?xml version="1.0" encoding="UTF-8"?>
<svg xmlns="http://www.w3.org/2000/svg" id="Layer_1" data-name="Layer 1" viewBox="0 0 24 24">
  <path d="m24,12c0,6.617-5.383,12-12,12-2.704,0-5.298-.939-7.389-2.573l-2.573,2.573v-6.021c0-.527.428-.954.955-.955h6.021l-2.265,2.265c1.516,1.09,3.348,1.711,5.251,1.711,4.963,0,9-4.038,9-9h3ZM12,3c1.911,0,3.741.618,5.255,1.707l-2.269,2.269h5.83c.633,0,1.146-.513,1.146-1.146V0l-2.573,2.573c-2.088-1.635-4.675-2.573-7.389-2.573C5.383,0,0,5.383,0,12h3C3,7.038,7.038,3,12,3Zm5.948,7.305l-1.53.882c.049.265.082.535.082.814s-.034.549-.082.814l1.53.882-1.498,2.6-1.543-.889c-.413.353-.885.631-1.407.817v1.776h-3v-1.776c-.522-.186-.994-.464-1.407-.818l-1.543.889-1.497-2.6,1.53-.881c-.049-.265-.082-.535-.082-.814s.034-.549.082-.814l-1.53-.881,1.497-2.6,1.543.889c.413-.353.885-.632,1.407-.818v-1.776h3v1.776c.522.186.994.464,1.407.817l1.543-.889,1.498,2.6Zm-4.448,1.695c0-.827-.673-1.5-1.5-1.5s-1.5.673-1.5,1.5.673,1.5,1.5,1.5,1.5-.673,1.5-1.5Z"/>
</svg>
